<svg width="20" height="33" viewBox="0 0 20 33" fill="none" xmlns="http://www.w3.org/2000/svg">
<path fill-rule="evenodd" clip-rule="evenodd" d="M6.84629 1.87545H13.1246V0H6.84629V1.87545ZM6.84629 4.84455H13.1246V3H6.84629V4.84455ZM17.9972 21.4745L11.4144 28.15L13.3409 30.1036L17.9972 25.3791V21.4745ZM17.9972 15.9545L13.3745 19.9064V23.2336L17.9972 18.5445V15.9545ZM13.3745 13.1445V17.0718C14.6585 15.7927 17.6437 13.8082 17.6437 13.8082L17.8372 13.6473L13.3745 13.1445ZM17.9972 8.06273H1.97828V11.6518L6.62729 11.1282V11.1264H8.62647V25.3236L9.97138 26.6873L11.3753 25.2618V11.1245H13.3745V11.1282L17.9972 11.6491V8.06273ZM6.62729 16.9773V13.1436L2.08824 13.6564L2.36994 13.7545C2.36994 13.7545 5.31419 15.6964 6.62729 16.9773ZM1.97828 18.5791L6.62729 23.2955V19.8155L1.97828 15.8718V18.5791ZM1.97828 25.4109L6.60366 30.1018L8.52742 28.15L1.97828 21.5082V25.4109ZM20 19.4436L19.9964 19.4464V26.2191H19.9418L19.9991 26.2782L13.3727 33L13.2818 32.9091L13.2491 32.9409L9.97138 29.6155L6.63365 33L6.5446 32.91L6.51461 32.9418L0.000909087 26.3336L0.119043 26.2136H0.00545279V19.5064L0 19.5018L0.00545279 19.4955V13.8909H0V11.8727H0.00545279V6.06273H19.9973V19.4382L19.9991 19.4427L20 19.4436Z" fill="white"/>
</svg>
