<svg width="150" height="33" viewBox="0 0 150 33" fill="none" xmlns="http://www.w3.org/2000/svg">
<path fill-rule="evenodd" clip-rule="evenodd" d="M6.84629 1.87545H13.1246V0H6.84629V1.87545ZM6.84629 4.84455H13.1246V3H6.84629V4.84455ZM17.9972 21.4745L11.4144 28.15L13.3409 30.1036L17.9972 25.3791V21.4745ZM17.9972 15.9545L13.3745 19.9064V23.2336L17.9972 18.5445V15.9545ZM13.3745 13.1445V17.0718C14.6585 15.7927 17.6437 13.8082 17.6437 13.8082L17.8372 13.6473L13.3745 13.1445ZM17.9972 8.06273H1.97828V11.6518L6.62729 11.1282V11.1264H8.62647V25.3236L9.97138 26.6873L11.3753 25.2618V11.1245H13.3745V11.1282L17.9972 11.6491V8.06273ZM6.62729 16.9773V13.1436L2.08824 13.6564L2.36994 13.7545C2.36994 13.7545 5.31419 15.6964 6.62729 16.9773ZM1.97828 18.5791L6.62729 23.2955V19.8155L1.97828 15.8718V18.5791ZM1.97828 25.4109L6.60366 30.1018L8.52742 28.15L1.97828 21.5082V25.4109ZM20 19.4436L19.9964 19.4464V26.2191H19.9418L19.9991 26.2782L13.3727 33L13.2818 32.9091L13.2491 32.9409L9.97138 29.6155L6.63365 33L6.5446 32.91L6.51461 32.9418L0.000909087 26.3336L0.119043 26.2136H0.00545279V19.5064L0 19.5018L0.00545279 19.4955V13.8909H0V11.8727H0.00545279V6.06273H19.9973V19.4382L19.9991 19.4427L20 19.4436Z" fill="white"/>
<path fill-rule="evenodd" clip-rule="evenodd" d="M146.255 8.33039L141.813 15.6684L137.37 8.33039H133.629V24.8471H137.37V15.2441L141.602 22.2517H142.022L146.255 15.2441V24.8471L149.996 21.1926V8.33039H146.255ZM124.98 18.2877H130.827V14.7011H124.98V11.964H131.411V8.33039H121.239V24.8471H131.528V21.2135H124.98V18.2877ZM107.448 11.964H111.656V24.8471H115.398V11.964H119.607V8.33039H107.448V11.964ZM98.9416 21.4969C96.2764 21.4969 94.1715 19.5384 94.1715 16.5888C94.1715 13.6398 96.2764 11.6813 98.9416 11.6813C101.607 11.6813 103.712 13.6398 103.712 16.5888C103.712 19.5384 101.607 21.4969 98.9416 21.4969ZM98.9416 8C94.2417 8 90.431 11.7283 90.431 16.5888C90.431 21.45 94.2417 25.1775 98.9416 25.1775C103.642 25.1775 107.453 21.45 107.453 16.5888C107.453 11.7283 103.642 8 98.9416 8ZM90.4339 8.33039H78.2744V11.964H82.4843V24.8471H86.2248V11.964H90.4339V8.33039ZM72.7608 21.3075H69.6271V18.1468H72.7608C73.6958 18.1468 74.3033 18.8068 74.3033 19.7271C74.3033 20.6475 73.6958 21.3075 72.7608 21.3075ZM69.6271 11.87H72.293C73.1584 11.87 73.7194 12.4831 73.7194 13.3325C73.7194 14.182 73.1348 14.7958 72.293 14.7958H69.6271V11.87ZM76.0342 16.2822C76.9226 15.5036 77.4607 14.4184 77.4607 13.0499C77.4607 10.1949 75.1459 8.33039 72.293 8.33039H65.8865V24.8471H72.7608C75.6839 24.8471 78.0453 22.9356 78.0453 20.0105C78.0453 18.3354 77.25 17.0609 76.0342 16.2822ZM57.2384 18.2877H63.0846V14.7011H57.2384V11.964H63.6685V8.33039H53.4972V24.8471H63.7853V21.2135H57.2384V18.2877ZM45.11 19.892L41.9533 8.33039H38.9142L35.7568 19.892L32.9283 8.33039H29L33.5122 24.8471H37.7678L40.4337 15.1024L43.0996 24.8471H47.3553L51.8675 8.33039H47.9399L45.11 19.892Z" fill="white"/>
</svg>
