<svg width="21" height="32" viewBox="0 0 21 32" fill="none" xmlns="http://www.w3.org/2000/svg">
<path fill-rule="evenodd" clip-rule="evenodd" d="M6.97765 1.81818H13.2171V0H6.97765V1.81818ZM6.97765 4.69721H13.2171V2.90909H6.97765V4.69721ZM18.0599 20.8233L11.5174 27.297L13.4317 29.1908L18.0599 24.6099V20.8233ZM18.0599 15.4705L13.4655 19.3028V22.529L18.0599 17.9821V15.4705ZM13.4655 12.7457V16.5547C14.742 15.3135 17.7083 13.3886 17.7083 13.3886L17.901 13.2335L13.4655 12.7457ZM18.0599 7.81867H2.13984V11.2979L6.7601 10.7898V10.7879H8.74688V24.5547L10.083 25.8773L11.4787 24.4955V10.7879H13.4655V10.7908L18.0599 11.296V7.81867ZM6.7601 16.4625V12.7447L2.24911 13.2422L2.52826 13.3372C2.52826 13.3372 5.45478 15.2204 6.7601 16.4625ZM2.13984 18.016L6.7601 22.5891V19.2145L2.13984 15.3901V18.016ZM2.13984 24.641L6.73626 29.1898L8.64854 27.297L2.13984 20.8562V24.641ZM20.0497 18.8538L20.0467 18.8567V25.4245H19.9931L20.0497 25.4817L13.4635 32L13.3731 31.9108L13.3413 31.9428L10.083 28.7176L6.76606 32L6.67765 31.9127L6.64785 31.9428L0.17392 25.536L0.29114 25.4196H0.178887V18.9159L0.17392 18.911L0.178887 18.9052V13.4701H0.17392V11.5142L0.178887 11.5132V7.32606V5.87927H20.0467V6.30303V7.81867V11.5142V13.4701V18.8499L20.0497 18.8538Z" fill="#3D50DF"/>
</svg>
