<?xml version="1.0" encoding="utf-8"?>
<!-- Svg Vector Icons : http://www.onlinewebfonts.com/icon -->
<!DOCTYPE svg PUBLIC "-//W3C//DTD SVG 1.1//EN" "http://www.w3.org/Graphics/SVG/1.1/DTD/svg11.dtd">
<svg version="1.1" xmlns="http://www.w3.org/2000/svg" xmlns:xlink="http://www.w3.org/1999/xlink" x="0px" y="0px" viewBox="0 0 1000 1000" enable-background="new 0 0 1000 1000" xml:space="preserve">
<metadata> Svg Vector Icons : http://www.onlinewebfonts.com/icon </metadata>
<g><path d="M522.7,258.4c-11.8,0-21.4,10.1-21.4,22.6v276.4c0,12.5,9.6,22.6,21.4,22.6h188c11.8,0,21.4-10.1,21.4-22.6c0-12.5-9.6-22.6-21.4-22.6H544V281C544,268.5,534.4,258.4,522.7,258.4L522.7,258.4z"/><path d="M526.3,10c-189.9,0-353.5,121.3-425.1,294.4H10l115.7,246.7l115.7-246.7h-90C219.8,158.6,362.1,58.1,526.3,58.1c230.6,0,418.2,198.2,418.2,441.9c0,243.6-187.6,441.9-418.2,441.9c-164.2,0-306.5-100.5-374.9-246.3h-50.2C172.7,868.7,336.3,990,526.3,990C782,990,990,770.2,990,500C990,229.8,782,10,526.3,10L526.3,10z"/></g>
</svg>