<svg width="40" height="40" viewBox="0 0 40 40" fill="none" xmlns="http://www.w3.org/2000/svg">
<rect width="40" height="40" rx="20" fill="white" fill-opacity="0.6"/>
<path d="M25.5323 16.5024C25.0991 15.9874 24.2994 15.7774 22.772 15.7774H17.2278C15.6656 15.7774 14.8523 16.001 14.4207 16.5492C14 17.0837 14 17.8713 14 18.9612V21.0387C14 23.1504 14.4992 24.2225 17.2278 24.2225H22.7721C24.0966 24.2225 24.8305 24.0372 25.3053 23.5828C25.7922 23.1168 26 22.356 26 21.0387V18.9612C26 17.8118 25.9674 17.0196 25.5323 16.5024ZM21.704 20.2868L19.1864 21.6026C19.1302 21.632 19.0686 21.6466 19.0071 21.6466C18.9375 21.6466 18.8681 21.6279 18.8066 21.5906C18.6908 21.5205 18.62 21.3949 18.62 21.2595V18.6364C18.62 18.5012 18.6906 18.3758 18.8062 18.3056C18.9218 18.2354 19.0656 18.2306 19.1855 18.2929L21.7031 19.6002C21.8312 19.6667 21.9117 19.7989 21.9119 19.9432C21.912 20.0876 21.8319 20.22 21.704 20.2868Z" fill="#5E6977"/>
</svg>
